<?xml version="1.0" encoding="UTF-8"?>
<svg id="Layer_1" xmlns="http://www.w3.org/2000/svg" version="1.1" viewBox="0 0 20 20">
  <!-- Generator: Adobe Illustrator 30.4.0, SVG Export Plug-In . SVG Version: 2.1.4 Build 226)  -->
  <defs>
    <style>
      .st0 {
        fill: #9696a0;
      }
    </style>
  </defs>
  <path class="st0" d="M10,1.1l2.9,5.4c0,0,.2.2.3.3l5.8,1.2-4,4.6c0,.1-.1.2-.1.4l.7,6.2-5.4-2.6h-.4l-5.4,2.6.7-6.2c0-.1,0-.3,0-.4L.9,8l5.8-1.2c0,0,.3,0,.3-.3l2.9-5.4M10,0l-3.3,6.2L0,7.6l4.6,5.3-.8,7.1,6.2-3,6.2,3-.8-7.1,4.6-5.3-6.7-1.4L10,0h0Z"/>
</svg>